<svg width="541" height="540" viewBox="0 0 541 540" fill="none" xmlns="http://www.w3.org/2000/svg">
<path d="M476.142 297.324C490.333 224.813 441.021 186.516 341.898 176.191C232.7 164.808 268.761 95.5908 213.357 57.8232C157.953 20.0557 1.38563 61.0956 80.9383 235.71C160.491 410.324 447.619 442.962 476.142 297.324Z" fill="#F5F5F5"/>
<path d="M510.93 478.311C510.93 478.473 411.041 478.603 287.856 478.603C164.671 478.603 64.7708 478.441 64.7708 478.311C64.7708 478.181 164.628 478.03 287.856 478.03C411.084 478.03 510.93 478.16 510.93 478.311Z" fill="#263238"/>
<path d="M196.639 138.305C196.639 138.305 197.578 89.91 157.543 65.3292H284.432C284.432 65.3292 320.709 94.7268 321.011 138.305H196.639Z" fill="#EBEBEB"/>
<path d="M274.755 82.9764C274.755 83.1384 260.261 83.268 242.355 83.268C224.449 83.268 209.955 83.1384 209.955 82.9764C209.955 82.8144 224.449 82.6956 242.355 82.6956C260.261 82.6956 274.755 82.8252 274.755 82.9764Z" fill="#455A64"/>
<path d="M288.601 91.7352C288.601 91.8864 269.398 92.016 245.714 92.016C222.03 92.016 202.827 91.8864 202.827 91.7352C202.827 91.584 222.03 91.4436 245.714 91.4436C269.398 91.4436 288.601 91.5732 288.601 91.7352Z" fill="#263238"/>
<path d="M295.815 113.875C295.815 114.026 276.613 114.156 252.928 114.156C229.244 114.156 210.031 114.026 210.031 113.875C210.031 113.724 229.233 113.594 252.928 113.594C276.623 113.594 295.815 113.724 295.815 113.875Z" fill="#263238"/>
<path d="M250.995 101.812C250.416 101.899 249.831 101.939 249.245 101.93L244.45 102.017C240.4 102.071 234.817 102.103 228.639 102.103C222.461 102.103 216.878 102.103 212.828 102.017L208.032 101.93C207.447 101.939 206.862 101.899 206.283 101.812C206.862 101.727 207.447 101.691 208.032 101.704L212.828 101.617C216.878 101.617 222.461 101.531 228.639 101.531C234.817 101.531 240.4 101.531 244.45 101.617L249.245 101.704C249.831 101.691 250.416 101.727 250.995 101.812Z" fill="#263238"/>
<path d="M288.601 101.812C288.175 101.9 287.74 101.94 287.305 101.93L283.763 102.017C280.782 102.071 276.645 102.103 272.088 102.103C267.53 102.103 263.394 102.103 260.413 102.017L256.871 101.93C256.436 101.94 256.001 101.9 255.575 101.812C256.002 101.733 256.436 101.697 256.871 101.704L260.413 101.617C263.394 101.617 267.53 101.531 272.088 101.531C276.645 101.531 280.728 101.531 283.763 101.617L287.305 101.704C287.74 101.691 288.174 101.727 288.601 101.812Z" fill="#263238"/>
<path d="M258.955 125.744C258.372 125.833 257.783 125.873 257.194 125.863L252.41 125.95C248.36 125.95 242.766 126.036 236.599 126.036C230.432 126.036 224.827 126.036 220.777 125.95L215.992 125.863C215.403 125.873 214.814 125.833 214.232 125.744C214.815 125.66 215.404 125.624 215.992 125.636L220.777 125.55C224.827 125.55 230.421 125.464 236.599 125.464C242.776 125.464 248.36 125.464 252.41 125.55L257.194 125.636C257.783 125.624 258.372 125.66 258.955 125.744Z" fill="#263238"/>
<path d="M296.56 125.744C296.134 125.833 295.699 125.873 295.264 125.863L291.722 125.95C288.73 125.95 284.605 126.036 280.047 126.036C275.489 126.036 271.407 126.036 268.361 125.95L264.819 125.863C264.384 125.873 263.949 125.833 263.523 125.744C263.95 125.666 264.384 125.63 264.819 125.636L268.361 125.55C271.353 125.55 275.479 125.464 280.047 125.464C284.615 125.464 288.687 125.464 291.722 125.55L295.264 125.636C295.699 125.63 296.133 125.666 296.56 125.744Z" fill="#263238"/>
<path d="M170.697 136.933H357.904L368.1 461.257C368.169 463.433 367.808 465.601 367.039 467.637C366.27 469.674 365.107 471.539 363.616 473.126C362.126 474.712 360.337 475.99 358.353 476.885C356.368 477.78 354.227 478.275 352.051 478.342H156.862C154.112 478.343 151.467 477.286 149.475 475.39C147.482 473.494 146.295 470.905 146.16 468.158L137.163 285.023C137.163 285.023 81.6404 264.87 82.58 203.385C82.58 203.385 85.1072 136.933 170.697 136.933Z" fill="#263238"/>
<path d="M180.86 477.857L172.695 136.933H364.698L368.165 463.515C368.284 467.316 366.889 471.008 364.287 473.781C361.684 476.553 358.087 478.179 354.287 478.3H353.79L180.86 477.857Z" fill="#455A64"/>
<path d="M188.561 156.686L192.449 315.425H348.822L346.716 156.686H188.561Z" fill="#263238"/>
<path d="M205.862 177.228C213.497 179.291 223.142 178.416 230.983 178.038C231.555 178.038 232.105 177.81 232.51 177.405C232.915 177 233.143 176.451 233.143 175.878C233.143 175.305 232.915 174.756 232.51 174.351C232.105 173.946 231.555 173.718 230.983 173.718C223.142 173.329 213.487 172.454 205.862 174.528C205.497 174.636 205.189 174.884 205.007 175.218C204.825 175.552 204.783 175.945 204.89 176.31C204.959 176.539 205.084 176.748 205.254 176.918C205.424 177.087 205.632 177.212 205.862 177.282V177.228Z" fill="#E0E0E0"/>
<path d="M244.332 176.915C251.827 178.826 261.514 178.481 269.172 177.746C269.744 177.746 270.294 177.519 270.699 177.114C271.104 176.709 271.332 176.159 271.332 175.586C271.332 175.014 271.104 174.464 270.699 174.059C270.294 173.654 269.744 173.426 269.172 173.426C261.514 172.681 251.827 172.346 244.332 174.258C244.156 174.311 243.993 174.398 243.852 174.514C243.71 174.63 243.593 174.773 243.507 174.935C243.42 175.096 243.367 175.273 243.349 175.455C243.331 175.638 243.349 175.822 243.403 175.997C243.468 176.216 243.588 176.416 243.75 176.579C243.912 176.741 244.112 176.86 244.332 176.926V176.915Z" fill="#E0E0E0"/>
<path d="M282.283 176.234C286.052 177.379 290.124 177.185 294.033 177.25C298.025 177.487 302.03 177.411 306.01 177.023C307.965 176.742 307.965 173.34 306.01 173.07C302.031 172.672 298.026 172.593 294.033 172.832C290.124 172.897 286.052 172.703 282.283 173.848C282.024 173.922 281.796 174.079 281.634 174.294C281.472 174.509 281.385 174.772 281.385 175.041C281.385 175.31 281.472 175.572 281.634 175.788C281.796 176.003 282.024 176.16 282.283 176.234Z" fill="#E0E0E0"/>
<path d="M317.448 176.45C320.291 176.864 323.16 177.084 326.034 177.109C328.885 177.174 331.963 177.638 334.728 176.85C335.116 176.733 335.456 176.493 335.698 176.167C335.94 175.842 336.07 175.447 336.07 175.041C336.07 174.635 335.94 174.24 335.698 173.915C335.456 173.589 335.116 173.35 334.728 173.232C331.963 172.444 328.885 172.908 326.034 172.973C323.16 172.996 320.291 173.22 317.448 173.642C317.147 173.735 316.885 173.921 316.698 174.174C316.511 174.426 316.41 174.732 316.41 175.046C316.41 175.361 316.511 175.667 316.698 175.919C316.885 176.172 317.147 176.358 317.448 176.45Z" fill="#E0E0E0"/>
<path d="M237.819 334.304H192.502V366.693H237.819V334.304Z" fill="#FFB700"/>
<path d="M200.7 334.304H192.502V366.693H200.7V334.304Z" fill="#263238"/>
<path d="M293.309 334.304H247.992V366.693H293.309V334.304Z" fill="#FFB700"/>
<path d="M255.726 334.304H247.528V366.693H255.726V334.304Z" fill="#263238"/>
<path d="M348.811 334.304H303.494V366.693H348.811V334.304Z" fill="#FFB700"/>
<path d="M310.395 334.304H302.198V366.693H310.395V334.304Z" fill="#263238"/>
<path d="M348.811 377.396H303.494V409.785H348.811V377.396Z" fill="#FFB700"/>
<path d="M311.939 377.396H303.494V409.785H311.939V377.396Z" fill="#263238"/>
<path d="M237.819 377.396H192.502V409.785H237.819V377.396Z" fill="#FFB700"/>
<path d="M200.7 377.331H192.502V409.72H200.7V377.331Z" fill="#263238"/>
<path d="M237.819 420.055H192.502V452.444H237.819V420.055Z" fill="#FFB700"/>
<path opacity="0.3" d="M237.819 420.055H192.502V452.444H237.819V420.055Z" fill="black"/>
<path d="M200.7 420.055H192.502V452.444H200.7V420.055Z" fill="#263238"/>
<path d="M293.061 377.396H247.744V409.785H293.061V377.396Z" fill="#FFB700"/>
<path d="M255.941 377.331H247.744V409.72H255.941V377.331Z" fill="#263238"/>
<path d="M293.309 420.055H247.992V452.444H293.309V420.055Z" fill="#FFB700"/>
<path opacity="0.3" d="M293.309 420.055H247.992V452.444H293.309V420.055Z" fill="black"/>
<path d="M256.19 420.055H247.992V452.444H256.19V420.055Z" fill="#263238"/>
<path d="M348.811 420.055H303.494V452.444H348.811V420.055Z" fill="#E0E0E0"/>
<path d="M311.691 420.055H303.494V452.444H311.691V420.055Z" fill="#263238"/>
<path d="M165.902 478.354C165.124 478.354 162.284 401.955 159.552 307.714C156.819 213.473 155.232 136.976 156.009 136.955C156.787 136.933 159.627 213.332 162.36 307.595C165.092 401.857 166.68 478.332 165.902 478.354Z" fill="#455A64"/>
<path d="M348.584 297.345V303.167L366.512 307.627L366.414 298.652L348.584 297.345Z" fill="#455A64"/>
<path d="M130.953 285.671C129.972 285.282 128.918 285.109 127.864 285.163C126.803 285.263 125.763 285.517 124.776 285.919L112.507 290.023L88.5308 298.08L43.1708 313.2C41.381 313.712 39.8428 314.865 38.8508 316.44C37.8678 317.981 37.5015 319.836 37.8248 321.635C38.0232 322.527 38.283 323.404 38.6024 324.259L39.4772 326.873C40.0604 328.612 40.6328 330.329 41.216 332.046C43.4912 338.879 45.7088 345.514 47.8688 351.951C52.1888 364.803 56.1632 376.79 59.8244 387.688C67.1036 409.536 73.0112 427.226 77.1044 439.452C79.1348 445.565 80.7008 450.306 81.7808 453.492C82.2992 455.101 82.7096 456.322 82.9796 457.153C83.2496 457.985 83.3684 458.406 83.3684 458.406C83.513 458.819 83.6975 459.217 83.9192 459.594C84.5419 460.719 85.4415 461.667 86.5328 462.348C87.417 462.896 88.4047 463.255 89.4342 463.404C90.4637 463.553 91.5129 463.487 92.5159 463.212C94.8703 462.456 97.5703 461.506 100.627 460.49L145.728 445.284L97.6243 295.056L121.687 286.989L165.135 420.12L163.234 373.81C154.486 347.749 145.036 319.572 135.154 290.164C134.819 289.156 134.27 288.233 133.545 287.458C132.82 286.682 131.936 286.073 130.953 285.671ZM75.506 354.111L64.7708 320.134L68.4104 318.978L79.1456 352.955L75.506 354.111ZM82.958 335.394L76.694 315.587L80.3336 314.442L86.5976 334.239L82.958 335.394ZM91.3603 360.515L85.1072 340.708L88.7468 339.563L94.9999 359.359L91.3603 360.515ZM93.5203 365.829L97.1599 364.673L114.44 419.515L110.8 420.66L93.5203 365.829ZM116.2 437.584L112.496 425.866L116.136 424.71L119.84 436.439L116.2 437.584ZM131.18 431.363L127.54 432.508L104.677 360.148L108.316 359.003L131.18 431.363ZM106.448 352.08L102.808 353.225L89.546 311.289L93.1856 310.133L106.448 352.08Z" fill="#FFB700"/>
<path opacity="0.3" d="M130.953 285.671C129.972 285.282 128.918 285.109 127.864 285.163C126.803 285.263 125.763 285.517 124.776 285.919L112.507 290.023L88.5308 298.08L43.1708 313.2C41.381 313.712 39.8428 314.865 38.8508 316.44C37.8678 317.981 37.5015 319.836 37.8248 321.635C38.0232 322.527 38.283 323.404 38.6024 324.259L39.4772 326.873C40.0604 328.612 40.6328 330.329 41.216 332.046C43.4912 338.879 45.7088 345.514 47.8688 351.951C52.1888 364.803 56.1632 376.79 59.8244 387.688C67.1036 409.536 73.0112 427.226 77.1044 439.452C79.1348 445.565 80.7008 450.306 81.7808 453.492C82.2992 455.101 82.7096 456.322 82.9796 457.153C83.2496 457.985 83.3684 458.406 83.3684 458.406C83.513 458.819 83.6975 459.217 83.9192 459.594C84.5419 460.719 85.4415 461.667 86.5328 462.348C87.417 462.896 88.4047 463.255 89.4342 463.404C90.4637 463.553 91.5129 463.487 92.5159 463.212C94.8703 462.456 97.5703 461.506 100.627 460.49L145.728 445.284L97.6243 295.056L121.687 286.989L165.135 420.12L163.234 373.81C154.486 347.749 145.036 319.572 135.154 290.164C134.819 289.156 134.27 288.233 133.545 287.458C132.82 286.682 131.936 286.073 130.953 285.671ZM75.506 354.111L64.7708 320.134L68.4104 318.978L79.1456 352.955L75.506 354.111ZM82.958 335.394L76.694 315.587L80.3336 314.442L86.5976 334.239L82.958 335.394ZM91.3603 360.515L85.1072 340.708L88.7468 339.563L94.9999 359.359L91.3603 360.515ZM93.5203 365.829L97.1599 364.673L114.44 419.515L110.8 420.66L93.5203 365.829ZM116.2 437.584L112.496 425.866L116.136 424.71L119.84 436.439L116.2 437.584ZM131.18 431.363L127.54 432.508L104.677 360.148L108.316 359.003L131.18 431.363ZM106.448 352.08L102.808 353.225L89.546 311.289L93.1856 310.133L106.448 352.08Z" fill="black"/>
<path d="M145.76 445.489L145.706 445.317L100.605 460.523C97.5487 461.538 94.8487 462.489 92.4943 463.245C91.4912 463.52 90.4421 463.585 89.4126 463.437C88.3831 463.288 87.3953 462.929 86.5111 462.381C85.4199 461.7 84.5203 460.752 83.8975 459.627C83.4763 458.871 83.3791 458.428 83.3467 458.439L83.4547 458.752C84.0208 460.286 85.0758 461.592 86.4571 462.467C87.3476 463.038 88.3479 463.415 89.3934 463.575C90.4389 463.735 91.5063 463.674 92.5267 463.396C94.9027 462.651 97.6027 461.722 100.67 460.707L152.434 443.427L164.714 439.323L165.902 438.718L145.76 445.489Z" fill="#263238"/>
<path d="M82.9579 457.175C82.6879 456.343 82.2775 455.123 81.7591 453.514C80.6791 450.274 79.1132 445.543 77.0828 439.474C73.0112 427.248 67.1035 409.558 59.8028 387.709C56.1416 376.791 52.1456 364.824 47.8472 351.972C45.6872 345.55 43.4696 338.915 41.1944 332.068C40.6112 330.351 40.0388 328.633 39.4556 326.895L38.5808 324.281C38.2614 323.425 38.0016 322.548 37.8032 321.657C37.4957 319.851 37.8814 317.995 38.8832 316.462C39.8752 314.887 41.4134 313.733 43.2032 313.222L88.5631 298.102L112.539 290.066L124.808 285.962C125.795 285.561 126.836 285.306 127.897 285.206C129.492 285.122 131.072 285.563 132.392 286.462C133.713 287.362 134.702 288.67 135.208 290.185C145.069 319.594 154.519 347.771 163.288 373.831L163.213 372.082C154.638 346.464 145.371 318.838 135.727 290.002C135.363 288.923 134.771 287.936 133.989 287.108C133.208 286.281 132.257 285.632 131.202 285.206C130.149 284.785 129.017 284.601 127.886 284.666C126.774 284.768 125.683 285.03 124.646 285.444L112.388 289.559L88.4119 297.594L43.052 312.801C41.1545 313.322 39.5163 314.526 38.4512 316.181C37.4129 317.828 37.0277 319.804 37.3712 321.721C37.5768 322.635 37.8438 323.533 38.1704 324.411C38.462 325.285 38.7644 326.149 39.056 327.024C39.6284 328.752 40.2116 330.48 40.784 332.187C43.088 339.027 45.3164 345.661 47.4692 352.091L59.4679 387.785L76.8884 439.495C78.962 445.587 80.5603 450.295 81.6511 453.535C82.202 455.134 82.6232 456.354 82.904 457.186L83.3467 458.428C83.3467 458.428 83.2279 458.007 82.9579 457.175Z" fill="#263238"/>
<path d="M108.278 359.02L104.643 360.169L127.511 432.522L131.147 431.373L108.278 359.02Z" fill="#FAFAFA"/>
<path d="M93.1814 310.133L89.5462 311.282L102.81 353.246L106.445 352.097L93.1814 310.133Z" fill="#FAFAFA"/>
<path d="M80.3369 314.436L76.7017 315.585L82.9607 335.388L86.5959 334.239L80.3369 314.436Z" fill="#FAFAFA"/>
<path d="M67.7348 317.959L64.1097 319.104L74.8057 352.965L78.4307 351.82L67.7348 317.959Z" fill="#FAFAFA"/>
<path d="M116.178 424.702L112.543 425.85L116.247 437.569L119.882 436.421L116.178 424.702Z" fill="#FAFAFA"/>
<path d="M88.7373 339.561L85.1022 340.71L91.3612 360.513L94.9963 359.364L88.7373 339.561Z" fill="#FAFAFA"/>
<path d="M97.1166 364.703L93.4814 365.852L110.813 420.688L114.448 419.539L97.1166 364.703Z" fill="#FAFAFA"/>
<path d="M97.6243 295.056L145.706 445.316L145.76 445.489L165.902 438.739L165.135 420.098L121.687 286.988L97.6243 295.056Z" fill="#FAFAFA"/>
<path d="M145.49 454.464L165.016 447.596L164.595 439.031L145.76 445.49L145.49 454.464Z" fill="#263238"/>
<path d="M391.687 205.859C391.687 206.01 391.082 206.107 390.326 206.075C389.57 206.042 388.987 205.891 388.998 205.729C389.008 205.567 389.613 205.481 390.358 205.513C391.104 205.545 391.698 205.697 391.687 205.859Z" fill="#263238"/>
<path d="M402.26 205.405C401.43 205.754 400.535 205.919 399.636 205.891C398.751 206.055 397.842 206.029 396.968 205.815C398.683 205.308 400.487 205.168 402.26 205.405Z" fill="#263238"/>
<path d="M412.736 203.537C411.958 203.989 411.093 204.273 410.198 204.368C409.34 204.639 408.437 204.735 407.541 204.649C409.177 203.925 410.947 203.557 412.736 203.569V203.537Z" fill="#263238"/>
<path d="M422.834 200.307C422.124 200.856 421.308 201.25 420.436 201.463C419.627 201.853 418.743 202.066 417.844 202.089C418.551 201.537 419.369 201.143 420.242 200.934C421.056 200.554 421.937 200.341 422.834 200.307Z" fill="#263238"/>
<path d="M432.414 195.739C431.03 196.873 429.427 197.707 427.705 198.191C428.339 197.553 429.096 197.05 429.93 196.711C430.681 196.219 431.527 195.888 432.414 195.739Z" fill="#263238"/>
<path d="M441.237 189.853C441.334 189.972 440.449 190.771 439.25 191.635C438.58 192.233 437.793 192.686 436.939 192.963C436.852 192.834 437.738 192.035 438.926 191.171C440.114 190.307 441.14 189.723 441.237 189.853Z" fill="#263238"/>
<path d="M449.035 182.661C449.153 182.769 448.397 183.741 447.361 184.734C446.324 185.728 445.384 186.527 445.287 186.408C445.19 186.29 445.924 185.328 446.961 184.335C447.998 183.341 448.916 182.52 449.035 182.661Z" fill="#263238"/>
<path d="M455.482 174.247C455.623 174.323 455.039 175.327 454.197 176.58C453.355 177.833 452.566 178.74 452.447 178.6C452.715 177.74 453.152 176.943 453.733 176.256C454.575 175.068 455.353 174.161 455.482 174.247Z" fill="#263238"/>
<path d="M460.234 164.765C459.867 166.52 459.131 168.176 458.074 169.625C458.418 167.862 459.156 166.201 460.234 164.765Z" fill="#263238"/>
<path d="M463.042 154.548C463.122 155.442 463.016 156.343 462.729 157.194C462.624 158.088 462.329 158.95 461.865 159.721C461.885 157.933 462.287 156.169 463.042 154.548Z" fill="#263238"/>
<path d="M464.122 143.996C464.396 145.764 464.282 147.569 463.788 149.288C463.568 148.42 463.531 147.515 463.68 146.632C463.648 145.732 463.799 144.836 464.122 143.996Z" fill="#263238"/>
<path d="M463.593 133.412C464.129 135.118 464.288 136.92 464.058 138.694C463.712 137.866 463.54 136.977 463.55 136.08C463.386 135.197 463.401 134.29 463.593 133.412Z" fill="#263238"/>
<path d="M461.444 123.023C461.918 123.786 462.231 124.639 462.362 125.528C462.667 126.375 462.792 127.276 462.729 128.174C462.255 127.411 461.943 126.558 461.811 125.669C461.512 124.82 461.387 123.92 461.444 123.023Z" fill="#263238"/>
<path d="M457.599 113.141C458.197 113.811 458.65 114.598 458.928 115.452C459.378 116.233 459.655 117.103 459.738 118.001C459.144 117.323 458.692 116.534 458.409 115.679C457.968 114.897 457.692 114.034 457.599 113.141Z" fill="#263238"/>
<path d="M451.94 104.166C452.059 104.069 452.836 104.965 453.69 106.175C454.275 106.855 454.712 107.649 454.975 108.508C454.845 108.594 454.057 107.687 453.225 106.499C452.64 105.819 452.202 105.024 451.94 104.166Z" fill="#263238"/>
<path d="M444.585 96.5629C444.682 96.4441 445.665 97.0921 446.745 98.0965C447.825 99.1009 448.56 100.051 448.452 100.159C448.344 100.267 447.436 99.5005 446.367 98.5069C445.298 97.5133 444.488 96.6817 444.585 96.5629Z" fill="#263238"/>
<path d="M437.986 92.0052C438.062 91.8756 438.645 92.0808 439.282 92.4696C439.92 92.8584 440.362 93.2796 440.287 93.4092C440.211 93.5388 439.617 93.3336 438.991 92.9556C438.364 92.5776 437.9 92.1456 437.986 92.0052Z" fill="#263238"/>
<path d="M408.697 118.681C429.359 118.681 446.108 101.931 446.108 81.2699C446.108 60.6083 429.359 43.8588 408.697 43.8588C388.035 43.8588 371.286 60.6083 371.286 81.2699C371.286 101.931 388.035 118.681 408.697 118.681Z" fill="#FFB700"/>
<path d="M386.568 84.0024L392.356 78.2136L403.524 88.1388L425.448 67.0464L430.826 72.8352L402.703 99.306L386.568 84.0024Z" fill="#FAFAFA"/>
</svg>
